<svg width="62" height="58" viewBox="0 0 62 58" fill="none" xmlns="http://www.w3.org/2000/svg">
<g clip-path="url(#clip0_150_5256)">
<path d="M42.3367 47.1736L31.6634 53.3359C31.6634 53.3359 31.0935 53.5092 30.7209 53.5898C27.5292 54.2809 22.5806 51.689 22.5806 51.689C22.5806 51.689 21.3394 51.1021 20.6812 50.5371C20.0934 50.0325 19.3808 49.0393 19.3808 49.0393L12.3139 36.7991C12.3139 36.7991 11.3382 34.6061 14.1699 32.9712C16.4026 31.6822 18.0317 33.4979 18.0317 33.4979L16.587 30.9955C16.587 30.9955 16.1011 29.0274 18.4994 27.6427C20.5143 26.4795 22.087 27.82 22.087 27.82L21.553 26.8952C21.553 26.8952 21.2181 25.0576 23.3419 23.8314C25.3568 22.6682 26.9986 23.7512 26.9986 23.7512L18.6439 9.2806C18.6439 9.2806 17.4631 6.48073 20.0769 4.9716C22.7997 3.39959 24.634 5.82221 24.634 5.82221L34.9674 23.7201C34.9674 23.7201 38.7357 23.1363 40.8712 24.0108C41.9279 24.4435 42.622 24.6762 43.357 25.5496C44.1076 26.4415 44.2319 27.2093 44.5923 28.318C46.3925 33.8569 44.6506 43.084 44.6506 43.084C44.6506 43.084 44.406 44.6409 44.006 45.412C43.5697 46.2531 42.3367 47.1736 42.3367 47.1736Z" fill="#F9F7F3"/>
<path d="M34.9674 23.7201C34.9674 23.7201 38.7357 23.1363 40.8712 24.0108C41.9279 24.4435 42.622 24.6762 43.357 25.5496C44.1076 26.4415 44.2319 27.2093 44.5923 28.318C46.3925 33.8569 44.6506 43.084 44.6506 43.084C44.6506 43.084 44.406 44.6409 44.006 45.412C43.5697 46.2531 42.3367 47.1736 42.3367 47.1736L31.6634 53.3359C31.6634 53.3359 31.0935 53.5092 30.7209 53.5898C27.5292 54.2809 22.5806 51.689 22.5806 51.689C22.5806 51.689 21.3394 51.1021 20.6812 50.5371C20.0934 50.0325 19.3808 49.0393 19.3808 49.0393L12.3139 36.7991C12.3139 36.7991 11.3382 34.6061 14.1699 32.9712C16.4026 31.6822 18.0317 33.4979 18.0317 33.4979M34.9674 23.7201L38.2967 29.4866M34.9674 23.7201L24.634 5.82221C24.634 5.82221 22.7997 3.39959 20.0769 4.9716C17.4631 6.48073 18.6439 9.2806 18.6439 9.2806L26.9986 23.7512M27.9408 25.3833L26.9986 23.7512M26.9986 23.7512C26.9986 23.7512 25.3568 22.6682 23.3419 23.8314C21.2181 25.0576 21.553 26.8952 21.553 26.8952L22.087 27.82M23.3433 29.9961L22.087 27.82M22.087 27.82C22.087 27.82 20.5143 26.4795 18.4994 27.6427C16.1011 29.0274 16.587 30.9955 16.587 30.9955L18.0317 33.4979M18.817 34.8579L18.0317 33.4979" stroke="#020134" stroke-width="2" stroke-linecap="round" stroke-linejoin="round"/>
<path d="M32 5.52832L56.5 5.52832M56.5 5.52832L52 1.02832M56.5 5.52832L52 10.0283" stroke="#020134" stroke-width="2" stroke-linecap="round" stroke-linejoin="round"/>
</g>
<defs>
<clipPath id="clip0_150_5256">
<rect width="61.527" height="57.5802" fill="white" transform="translate(0.473022)"/>
</clipPath>
</defs>
</svg>
