<svg width="22" height="22" viewBox="0 0 22 22" fill="none" xmlns="http://www.w3.org/2000/svg">
<path d="M9.54289 20.7071L10.25 21.4142L11.6642 20L10.9571 19.2929L9.54289 20.7071ZM1.25 11L0.542893 10.2929C0.152369 10.6834 0.152369 11.3166 0.542893 11.7071L1.25 11ZM10.9571 2.70711L11.6642 2L10.25 0.585786L9.54289 1.29289L10.9571 2.70711ZM2.5 10C1.94772 10 1.5 10.4477 1.5 11C1.5 11.5523 1.94772 12 2.5 12V10ZM20.75 12C21.3023 12 21.75 11.5523 21.75 11C21.75 10.4477 21.3023 10 20.75 10V12ZM10.9571 19.2929L1.95711 10.2929L0.542893 11.7071L9.54289 20.7071L10.9571 19.2929ZM1.95711 11.7071L10.9571 2.70711L9.54289 1.29289L0.542893 10.2929L1.95711 11.7071ZM2.5 12H20.75V10H2.5V12Z" fill="#2A445E"/>
</svg>
