<svg width="32" height="32" viewBox="0 0 32 32" fill="none" xmlns="http://www.w3.org/2000/svg">
<path d="M16 18.6667L15.2929 19.3738L16 20.0809L16.7071 19.3738L16 18.6667ZM17 6.66669C17 6.1144 16.5523 5.66669 16 5.66669C15.4478 5.66669 15 6.1144 15 6.66669L17 6.66669ZM8.62627 12.7071L15.2929 19.3738L16.7071 17.9596L10.0405 11.2929L8.62627 12.7071ZM16.7071 19.3738L23.3738 12.7071L21.9596 11.2929L15.2929 17.9596L16.7071 19.3738ZM17 18.6667L17 6.66669L15 6.66669L15 18.6667L17 18.6667Z" fill="#2A445E"/>
<path d="M6.66663 21.3333L6.66663 22.6666C6.66663 24.1394 7.86053 25.3333 9.33329 25.3333L22.6666 25.3333C24.1394 25.3333 25.3333 24.1394 25.3333 22.6666V21.3333" stroke="#2A445E" stroke-width="2"/>
</svg>
