<svg width="375" height="409" viewBox="0 0 375 409" fill="none" xmlns="http://www.w3.org/2000/svg">
<rect x="211.225" y="408.712" width="257.4" height="321.077" rx="20" transform="rotate(-147.974 211.225 408.712)" fill="#2A445E"/>
<rect x="266.756" y="394.132" width="257.4" height="321.077" rx="20" transform="rotate(-164.013 266.756 394.132)" fill="#9CDE73"/>
<rect x="316.325" y="365" width="258" height="321" rx="20" transform="rotate(-180 316.325 365)" fill="#F5C852"/>
<path d="M133.28 157.068L129.708 157.734L115.812 196.999H111.09L96.8916 157.674L93.2285 157.068V154.404H108.062V157.068L104.399 157.371C104.198 157.391 104.036 157.543 103.915 157.825C103.814 158.088 103.794 158.31 103.854 158.491L114.753 189.128L125.228 158.612C125.328 158.37 125.278 158.108 125.076 157.825C124.895 157.543 124.662 157.391 124.38 157.371L120.959 157.068V154.404H133.28V157.068ZM165.521 181.105C165.521 184.032 164.916 186.686 163.705 189.067C162.494 191.429 160.779 193.306 158.559 194.698C156.359 196.071 153.745 196.757 150.718 196.757C147.711 196.757 145.107 196.071 142.907 194.698C140.707 193.326 139.012 191.459 137.821 189.098C136.631 186.736 136.035 184.072 136.035 181.105C136.035 178.159 136.631 175.495 137.821 173.113C139.032 170.732 140.748 168.845 142.968 167.452C145.208 166.06 147.852 165.363 150.899 165.363C153.987 165.363 156.621 166.07 158.801 167.482C160.98 168.895 162.646 170.792 163.796 173.174C164.946 175.555 165.521 178.199 165.521 181.105ZM159.073 181.045C159.073 178.785 158.771 176.675 158.165 174.718C157.58 172.76 156.672 171.176 155.44 169.965C154.229 168.754 152.696 168.148 150.839 168.148C148.922 168.148 147.347 168.754 146.116 169.965C144.905 171.176 144.007 172.76 143.422 174.718C142.837 176.675 142.544 178.785 142.544 181.045C142.544 183.285 142.837 185.394 143.422 187.372C144.027 189.33 144.936 190.914 146.146 192.125C147.378 193.336 148.922 193.941 150.778 193.941C152.675 193.941 154.229 193.336 155.44 192.125C156.672 190.914 157.58 189.33 158.165 187.372C158.771 185.414 159.073 183.305 159.073 181.045ZM194.433 193.699C193.04 194.446 191.466 195.142 189.71 195.788C187.974 196.434 186.057 196.757 183.958 196.757C181.072 196.757 178.559 196.081 176.42 194.729C174.301 193.376 172.656 191.54 171.485 189.219C170.335 186.878 169.76 184.224 169.76 181.257C169.76 177.785 170.446 174.869 171.818 172.508C173.211 170.146 175.037 168.37 177.298 167.18C179.578 165.969 182.041 165.363 184.685 165.363C187.409 165.363 189.69 165.898 191.526 166.968C193.383 168.017 194.312 169.551 194.312 171.569C194.312 172.78 193.928 173.699 193.161 174.324C192.414 174.93 191.577 175.232 190.648 175.232C189.962 175.232 189.367 175.121 188.862 174.899C188.358 174.657 187.914 174.415 187.53 174.173V168.784C186.582 168.239 185.714 167.967 184.927 167.967C183.09 167.967 181.506 168.512 180.174 169.602C178.862 170.671 177.853 172.145 177.146 174.021C176.44 175.898 176.087 178.038 176.087 180.439C176.087 182.72 176.47 184.809 177.237 186.706C178.004 188.583 179.145 190.076 180.658 191.187C182.192 192.297 184.089 192.852 186.35 192.852C187.783 192.852 189.155 192.619 190.467 192.155C191.779 191.691 193.101 191.025 194.433 190.157V193.699ZM227.037 196H217.864L217.047 192.337C217.047 192.337 216.734 192.559 216.108 193.003C215.503 193.447 214.696 193.962 213.687 194.547C212.677 195.132 211.557 195.647 210.326 196.091C209.115 196.535 207.904 196.757 206.693 196.757C204.453 196.757 202.546 196.01 200.972 194.517C199.418 193.023 198.641 190.975 198.641 188.371C198.641 187.221 198.842 186.151 199.246 185.162C199.67 184.173 200.497 183.235 201.729 182.347C202.98 181.438 204.826 180.561 207.269 179.713C209.731 178.845 212.99 177.967 217.047 177.079C217.047 177.019 217.047 176.766 217.047 176.322C217.047 175.878 217.047 175.454 217.047 175.051C217.047 174.627 217.047 174.415 217.047 174.415C217.047 170.338 215.119 168.3 211.265 168.3C210.195 168.3 209.267 168.401 208.479 168.603C207.713 168.804 207.178 168.966 206.875 169.087V174.476H202.364C201.799 174.476 201.274 174.375 200.79 174.173C200.306 173.951 200.063 173.456 200.063 172.689C200.063 170.994 200.709 169.612 202.001 168.542C203.293 167.452 204.927 166.655 206.905 166.15C208.903 165.626 210.922 165.363 212.96 165.363C215.523 165.363 217.511 165.767 218.924 166.574C220.337 167.361 221.326 168.461 221.891 169.874C222.456 171.267 222.738 172.861 222.738 174.657V192.034C222.738 192.418 222.859 192.73 223.102 192.973C223.364 193.215 223.677 193.356 224.04 193.396L227.037 193.578V196ZM217.047 190.157V179.44C214.262 180.127 212.042 180.823 210.387 181.529C208.752 182.215 207.531 182.912 206.724 183.618C205.916 184.304 205.382 185.011 205.119 185.737C204.877 186.444 204.756 187.18 204.756 187.947C204.756 189.219 205.16 190.399 205.967 191.489C206.794 192.559 207.945 193.094 209.418 193.094C210.245 193.094 211.103 192.952 211.991 192.67C212.879 192.367 213.707 192.024 214.474 191.641C215.241 191.237 215.856 190.894 216.32 190.611C216.805 190.309 217.047 190.157 217.047 190.157ZM260.368 179.622C260.368 182.73 259.753 185.525 258.521 188.008C257.29 190.47 255.363 192.418 252.739 193.851C250.116 195.284 246.725 196 242.567 196H233.637V154.768H228.944V152.709L236.937 150.317H239.419V167.664C240.125 167.321 241.266 166.857 242.84 166.271C244.434 165.666 246.14 165.363 247.956 165.363C250.681 165.363 252.961 166.019 254.798 167.331C256.634 168.643 258.017 170.389 258.945 172.568C259.894 174.728 260.368 177.079 260.368 179.622ZM254.041 180.863C254.041 176.948 253.214 174.001 251.559 172.023C249.904 170.025 247.573 169.026 244.565 169.026C243.879 169.026 243.001 169.137 241.932 169.359C240.882 169.581 240.045 169.803 239.419 170.025V193.033C239.924 193.053 240.428 193.074 240.933 193.094C241.437 193.094 241.942 193.094 242.446 193.094C246.119 193.094 248.965 192.186 250.983 190.369C253.022 188.553 254.041 185.384 254.041 180.863ZM279.622 183.406H265.242V178.774H279.622V183.406ZM150.203 258H140.364V254.458C139.658 255.003 138.76 255.608 137.67 256.274C136.58 256.94 135.41 257.516 134.158 258C132.907 258.505 131.666 258.757 130.435 258.757C127.771 258.757 125.672 257.96 124.138 256.365C122.624 254.751 121.867 252.198 121.867 248.706V231.904H117.538V229.785L125.167 227.363H127.649V247.525C127.649 249.725 128.093 251.441 128.981 252.672C129.89 253.903 131.444 254.519 133.644 254.519C134.915 254.519 136.166 254.307 137.397 253.883C138.629 253.439 139.618 253.035 140.364 252.672V231.904H136.005V229.785L143.573 227.363H146.116V254.034C146.116 254.418 146.247 254.73 146.51 254.973C146.792 255.215 147.115 255.356 147.479 255.396L150.203 255.578V258ZM168.337 258H153.261V255.578L156.561 255.396C156.843 255.376 157.136 255.225 157.438 254.942C157.761 254.64 157.923 254.357 157.923 254.095V216.768H153.2V214.709L161.132 212.317H163.675V254.095C163.675 254.357 163.826 254.64 164.129 254.942C164.432 255.225 164.714 255.376 164.977 255.396L168.337 255.578V258ZM200.518 258H191.345L190.527 254.337C190.527 254.337 190.215 254.559 189.589 255.003C188.983 255.447 188.176 255.962 187.167 256.547C186.158 257.132 185.038 257.647 183.807 258.091C182.596 258.535 181.385 258.757 180.174 258.757C177.934 258.757 176.026 258.01 174.452 256.517C172.898 255.023 172.121 252.975 172.121 250.371C172.121 249.221 172.323 248.151 172.727 247.162C173.15 246.173 173.978 245.235 175.209 244.347C176.46 243.438 178.307 242.561 180.749 241.713C183.211 240.845 186.471 239.967 190.527 239.079C190.527 239.019 190.527 238.766 190.527 238.322C190.527 237.878 190.527 237.454 190.527 237.051C190.527 236.627 190.527 236.415 190.527 236.415C190.527 232.338 188.6 230.3 184.745 230.3C183.675 230.3 182.747 230.401 181.96 230.603C181.193 230.804 180.658 230.966 180.355 231.087V236.476H175.845C175.28 236.476 174.755 236.375 174.271 236.173C173.786 235.951 173.544 235.456 173.544 234.689C173.544 232.994 174.19 231.612 175.481 230.542C176.773 229.452 178.408 228.655 180.386 228.15C182.384 227.626 184.402 227.363 186.44 227.363C189.004 227.363 190.992 227.767 192.404 228.574C193.817 229.361 194.806 230.461 195.371 231.874C195.936 233.267 196.219 234.861 196.219 236.657V254.034C196.219 254.418 196.34 254.73 196.582 254.973C196.844 255.215 197.157 255.356 197.521 255.396L200.518 255.578V258ZM190.527 252.157V241.44C187.742 242.127 185.522 242.823 183.867 243.529C182.232 244.215 181.011 244.912 180.204 245.618C179.397 246.304 178.862 247.011 178.6 247.737C178.357 248.444 178.236 249.18 178.236 249.947C178.236 251.219 178.64 252.399 179.447 253.489C180.275 254.559 181.425 255.094 182.898 255.094C183.726 255.094 184.584 254.952 185.472 254.67C186.36 254.367 187.187 254.024 187.954 253.641C188.721 253.237 189.337 252.894 189.801 252.611C190.285 252.309 190.527 252.157 190.527 252.157ZM225.16 234.447H222.738C222.355 233.983 221.891 233.59 221.346 233.267C220.821 232.924 220.175 232.752 219.408 232.752C218.419 232.752 217.4 233.095 216.351 233.781C215.321 234.467 214.272 235.406 213.202 236.597V254.034C213.202 254.902 213.636 255.356 214.504 255.396L218.591 255.578V258H203.091V255.639L206.148 255.396C206.512 255.356 206.814 255.215 207.057 254.973C207.319 254.73 207.45 254.418 207.45 254.034V232.51H202.97V230.481L210.659 228.12H213.202V233.63C214.958 231.591 216.482 230.037 217.773 228.968C219.085 227.898 220.286 227.363 221.376 227.363C222.022 227.363 222.718 227.464 223.465 227.666C224.212 227.868 224.777 228.08 225.16 228.302V234.447ZM258.067 230.542L254.828 230.905L242.931 259.907C242.668 260.573 242.255 261.522 241.689 262.753C241.145 264.004 240.489 265.276 239.722 266.567C238.975 267.879 238.168 268.969 237.3 269.837C236.553 270.584 235.726 271.159 234.817 271.562C233.929 271.986 232.961 272.198 231.911 272.198C230.438 272.198 229.308 271.835 228.521 271.108C227.754 270.402 227.37 269.585 227.37 268.656C227.37 267.284 228.036 266.043 229.368 264.933L235.181 267.597C235.867 266.91 236.553 265.982 237.239 264.812C237.925 263.641 238.541 262.43 239.086 261.179C239.651 259.927 240.085 258.848 240.388 257.939L229.853 230.905L226.432 230.542V228.12H240.146V230.542L237.179 230.724C236.836 230.744 236.553 230.895 236.331 231.178C236.129 231.44 236.099 231.743 236.24 232.086L243.445 250.371L250.802 232.086C250.943 231.763 250.923 231.46 250.741 231.178C250.56 230.895 250.297 230.744 249.954 230.724L247.018 230.542V228.12H258.067V230.542Z" fill="#2A445E"/>
</svg>
