<svg width="372" height="809" viewBox="0 0 372 809" fill="none" xmlns="http://www.w3.org/2000/svg">
<g opacity="0.3">
<path d="M378.327 434.39L375.415 433.306L352.467 456.358L349.337 454.456L356.591 426.439L335.212 445.873L332.124 443.997L341.573 412.743L339.394 410.734L340.51 408.898L350.295 414.844L349.18 416.68L346.482 415.383C346.279 415.279 346.087 415.296 345.908 415.435C345.729 415.573 345.601 415.752 345.524 415.973L338.901 438.345L359.1 420.193L362.397 422.197L355.362 449.289L372.231 432.2C372.391 432.03 372.47 431.822 372.468 431.573C372.467 431.325 372.359 431.126 372.145 430.977L369.606 429.091L370.721 427.255L379.443 432.554L378.327 434.39Z" fill="#F5C852"/>
<path d="M136.729 610.114L125.083 614.98L124.255 612.998L126.635 611.792C126.953 611.624 127.15 611.4 127.228 611.121C127.32 610.835 127.319 610.58 127.225 610.354L116.597 584.922L117.942 617.964L115.645 618.924L93.6191 595.027L104.068 620.031C104.162 620.257 104.336 620.44 104.589 620.581C104.857 620.716 105.162 620.729 105.505 620.621L108.216 619.7L109.044 621.683L99.0653 625.853L98.2369 623.87L100.797 622.589C101.115 622.421 101.305 622.2 101.367 621.927C101.445 621.648 101.436 621.396 101.342 621.17L91.0629 596.572C90.9687 596.346 90.7951 596.163 90.5421 596.022C90.2978 595.859 90.0073 595.84 89.6706 595.963L86.9597 596.884L86.1314 594.901L96.4709 590.581L96.9887 591.82L114.816 610.989L113.76 584.97L113.185 583.596L123.795 579.162L124.624 581.145L122.199 582.37C121.875 582.523 121.669 582.75 121.583 583.05C121.506 583.33 121.514 583.582 121.609 583.807L131.888 608.406C131.982 608.631 132.156 608.814 132.409 608.956C132.677 609.09 132.982 609.104 133.325 608.996L135.901 608.131L136.729 610.114Z" fill="#F5C852"/>
<path d="M53.0306 72.5858L31.2239 58.5604L32.386 56.7534L34.6683 57.9891C34.987 58.1554 35.2833 58.1911 35.5572 58.0963C35.8447 58.0103 36.0545 57.8647 36.1866 57.6593L50.6082 35.2365C50.7402 35.0312 50.7858 34.7799 50.7448 34.4826C50.7262 34.1804 50.5708 33.9256 50.2784 33.7182L48.2075 32.1541L49.3697 30.3471L69.8007 43.4877L65.7727 49.7504L63.2471 48.126L64.8292 44.267C64.9476 44.0528 64.9843 43.8152 64.9394 43.5541C64.8945 43.293 64.7762 43.1008 64.5845 42.9775L55.4676 37.1138L48.7322 47.586L55.0361 51.6404C55.2277 51.7636 55.4517 51.7916 55.7079 51.7241C55.9778 51.6655 56.1612 51.5609 56.2581 51.4103L58.5514 48.7924L60.6869 50.1659L54.6515 59.5498L52.516 58.1763L53.9601 54.9832C54.057 54.8326 54.0805 54.6155 54.0307 54.3319C53.9808 54.0483 53.867 53.8493 53.689 53.7348L47.3852 49.6804L39.9366 61.2614L50.5731 68.1024C50.7511 68.2169 50.977 68.2267 51.2508 68.1319C51.5471 68.0322 51.7462 67.9183 51.8479 67.7902L55.2886 64.1105L57.5473 65.5633L53.0306 72.5858Z" fill="#F5C852"/>
<path d="M354.212 610.936C355.005 612.968 355.473 615.039 355.615 617.15C355.758 619.261 355.475 621.311 354.766 623.3C354.066 625.268 352.854 627.086 351.129 628.755C349.414 630.403 347.093 631.798 344.167 632.94L331.226 637.991L330.445 635.99L332.83 634.849C333.152 634.689 333.354 634.47 333.438 634.192C333.537 633.909 333.543 633.654 333.454 633.426L323.761 608.591C323.672 608.363 323.495 608.179 323.23 608.038C322.975 607.875 322.677 607.852 322.338 607.967L319.811 608.743L319.029 606.742L331.038 602.055C334.298 600.783 337.432 600.197 340.442 600.298C343.446 600.384 346.137 601.281 348.517 602.991C350.911 604.694 352.81 607.343 354.212 610.936ZM348.971 613.087C347.699 609.827 346.181 607.414 344.417 605.849C342.662 604.262 340.703 603.385 338.541 603.215C336.393 603.04 334.091 603.432 331.635 604.391L328.087 605.775L338.543 632.567L342.301 631.048C344.685 630.082 346.592 628.814 348.023 627.242C349.448 625.655 350.274 623.699 350.502 621.374C350.73 619.048 350.22 616.286 348.971 613.087Z" fill="#F5C852"/>
<path d="M74.7051 731.669C74.5277 731.786 74.2194 732.086 73.7801 732.57C73.3409 733.054 72.7935 733.477 72.138 733.839C70.6418 734.665 69.3143 735.072 68.1555 735.061C67.011 735.042 65.9724 734.76 65.0396 734.215C64.1132 733.648 63.2362 732.952 62.4085 732.126C61.5951 731.292 60.7785 730.469 59.9588 729.658C59.1311 728.832 58.2438 728.15 57.2967 727.613C56.3418 727.062 55.2779 726.785 54.1049 726.782C52.9319 726.778 51.5759 727.201 50.0369 728.051C49.5809 728.302 49.1542 728.556 48.7567 728.813C48.3734 729.062 48.1604 729.198 48.1176 729.221L53.6268 739.203C53.7448 739.417 53.93 739.585 54.1827 739.705C54.4495 739.818 54.7475 739.803 55.0768 739.658L57.4796 738.555L58.5177 740.436L47.638 746.441L46.5999 744.56L48.7712 743.138C49.069 742.937 49.2412 742.693 49.2878 742.407C49.3487 742.113 49.3202 741.859 49.2022 741.645L36.32 718.304C36.202 718.09 36.0025 717.931 35.7214 717.826C35.4467 717.699 35.1486 717.714 34.8273 717.873L32.4672 718.953L31.429 717.072L42.8432 710.772C46.1634 708.94 49.0967 708.074 51.6432 708.174C54.1961 708.252 56.2708 709.738 57.8673 712.631C58.7089 714.155 59.059 715.598 58.9176 716.959C58.7684 718.305 58.2986 719.559 57.508 720.72C56.7318 721.874 55.8024 722.935 54.72 723.904C56.2546 723.485 57.5686 723.373 58.662 723.569C59.7618 723.743 60.7093 724.112 61.5045 724.677C62.2997 725.242 63.018 725.887 63.6594 726.611C64.3008 727.336 64.9304 728.038 65.5482 728.72C66.166 729.401 66.8332 729.953 67.5497 730.376C68.2805 730.791 69.1329 730.971 70.1068 730.917C71.0808 730.862 72.2518 730.458 73.6198 729.703L74.7051 731.669ZM53.207 715.454C52.1767 713.587 50.7839 712.478 49.0285 712.127C47.2874 711.768 45.0346 712.351 42.2701 713.877C42.2701 713.877 42.1134 713.964 41.7999 714.137C41.4864 714.31 41.1586 714.49 40.8166 714.679C40.4889 714.86 40.3036 714.962 40.2609 714.986L46.879 726.977C46.9502 726.938 47.2463 726.784 47.7671 726.515C48.3022 726.238 48.7408 726.005 49.0828 725.817C51.5195 724.472 53.1385 722.993 53.9398 721.379C54.741 719.766 54.4967 717.791 53.207 715.454Z" fill="#F5C852"/>
<path d="M294.117 795.129C292.769 796.126 291.196 796.721 289.397 796.917C287.609 797.125 285.728 796.744 283.756 795.772C281.807 794.804 279.899 793.057 278.032 790.53C276.862 788.946 275.968 787.381 275.351 785.833C274.731 784.308 274.362 783.124 274.244 782.28L281.372 777.014L283.243 779.547L279.079 783.443C278.942 783.585 278.834 783.796 278.757 784.076C278.681 784.355 278.658 784.584 278.689 784.764C278.789 785.337 278.981 786.035 279.265 786.858C279.562 787.67 280.063 788.555 280.769 789.51C282.036 791.225 283.499 792.33 285.159 792.823C286.819 793.317 288.395 793.013 289.888 791.91C290.817 791.224 291.392 790.344 291.611 789.271C291.843 788.189 291.862 786.9 291.668 785.404C291.484 783.922 291.198 782.221 290.811 780.3C290.523 778.814 290.325 777.382 290.218 776.004C290.123 774.617 290.302 773.311 290.754 772.087C291.205 770.863 292.112 769.748 293.473 768.742C295.07 767.562 296.758 766.943 298.536 766.884C300.314 766.825 302.041 767.26 303.717 768.186C305.406 769.104 306.904 770.446 308.209 772.213C309.244 773.614 310.054 775.039 310.639 776.489C311.247 777.942 311.725 779.218 312.072 780.317L305.808 784.945L304.11 782.648L307.509 779.196C307.644 779.076 307.721 778.907 307.743 778.689C307.764 778.471 307.77 778.275 307.761 778.099C307.751 777.783 307.665 777.27 307.504 776.559C307.343 775.848 306.866 774.956 306.073 773.882C304.884 772.272 303.494 771.336 301.904 771.074C300.327 770.802 298.858 771.169 297.496 772.175C296.266 773.084 295.598 774.316 295.492 775.871C295.396 777.44 295.669 779.383 296.309 781.703C297.192 784.814 297.545 787.457 297.37 789.63C297.218 791.807 296.133 793.64 294.117 795.129Z" fill="#F5C852"/>
<path d="M296.227 215.08L285.897 207.785L287.137 206.03L289.583 207.518C289.881 207.689 290.168 207.733 290.446 207.65C290.724 207.567 290.933 207.426 291.074 207.226L298.525 196.677L285.084 187.184L277.633 197.733C277.492 197.933 277.423 198.173 277.424 198.453C277.439 198.742 277.583 199.003 277.857 199.236L280.077 201.044L278.838 202.799L268.508 195.503L269.748 193.748L271.974 195.082C272.285 195.262 272.58 195.31 272.858 195.227C273.149 195.154 273.364 195.017 273.505 194.818L288.886 173.042C289.026 172.842 289.078 172.6 289.041 172.314C289.026 172.025 288.877 171.77 288.594 171.55L286.593 169.898L287.86 168.103L298.19 175.399L296.923 177.194L294.477 175.705C294.175 175.512 293.885 175.457 293.607 175.54C293.352 175.619 293.154 175.758 293.014 175.957L286.521 185.15L299.961 194.643L306.454 185.45C306.595 185.251 306.653 185.013 306.629 184.737C306.614 184.447 306.472 184.197 306.202 183.987L303.982 182.179L305.25 180.385L315.579 187.681L314.312 189.475L312.085 188.142C311.783 187.949 311.487 187.889 311.196 187.962C310.928 188.032 310.723 188.166 310.582 188.366L295.202 210.142C295.061 210.341 294.998 210.586 295.013 210.875C295.041 211.174 295.192 211.44 295.466 211.673L297.467 213.326L296.227 215.08Z" fill="#F5C852"/>
<path d="M44.336 323.184L22.8999 334.664L21.8857 332.77L24.3546 331.226C24.6549 331.029 24.823 330.791 24.8589 330.513C24.9092 330.228 24.8767 329.977 24.7614 329.762L12.1754 306.26C12.0601 306.045 11.8698 305.879 11.6044 305.763C11.3456 305.624 11.0546 305.632 10.7313 305.787L8.07791 306.986L7.06365 305.092L18.3198 299.065L19.334 300.958L17.0803 302.387C16.7723 302.57 16.5899 302.816 16.533 303.123C16.4827 303.409 16.5152 303.659 16.6305 303.874L29.689 328.259L38.9436 323.303C39.1445 323.195 39.3103 323.005 39.441 322.732C39.5717 322.459 39.5942 322.225 39.5087 322.031L37.3836 316.356L39.9448 314.984L44.336 323.184Z" fill="#F5C852"/>
<path d="M87.3428 193.607C87.2564 193.592 86.7192 193.47 85.7311 193.243C84.7568 193.024 83.5583 192.657 82.1356 192.142C80.7128 191.627 79.2744 190.921 77.8202 190.023C75.4381 188.553 73.5783 186.84 72.2408 184.886C70.9118 182.918 70.0463 180.834 69.6443 178.635C69.2561 176.444 69.288 174.255 69.74 172.066C70.2006 169.864 71.0337 167.786 72.2393 165.834C74.0519 162.898 76.2697 160.699 78.8927 159.239C81.5243 157.765 84.3439 157.086 87.3517 157.202C90.3734 157.327 93.3661 158.304 96.3299 160.134C97.7148 160.989 98.9477 161.951 100.028 163.02C101.123 164.097 102.367 165.429 103.759 167.016L99.6421 173.684L97.0869 172.107L98.8491 167.858C98.955 167.656 98.9777 167.402 98.9174 167.097C98.8794 166.787 98.8152 166.565 98.7248 166.433C98.5003 166.084 98.097 165.529 97.5148 164.768C96.9465 164.015 96.1291 163.31 95.0627 162.651C93.1377 161.463 91.1046 160.868 88.9635 160.866C86.8448 160.858 84.7625 161.505 82.7166 162.805C80.6707 164.105 78.8055 166.119 77.1212 168.847C74.6758 172.808 73.7162 176.501 74.2423 179.924C74.7684 183.348 76.7142 186.098 80.0796 188.176C81.0768 188.792 81.9596 189.174 82.7282 189.323C83.4968 189.473 83.9061 189.553 83.9562 189.565C84.502 189.672 84.9473 189.555 85.2922 189.213L89.1286 185.184L91.6007 186.71L87.3428 193.607Z" fill="#F5C852"/>
<path d="M314.834 32.0827C313.901 33.8722 312.773 35.1559 311.449 35.9341C310.133 36.6978 308.728 37.1032 307.235 37.1504C305.764 37.1908 304.315 36.9949 302.888 36.5628C301.461 36.1307 300.163 35.6098 298.994 35.0001L286.591 28.5305L287.584 26.6257L290.013 27.6719C290.345 27.8086 290.636 27.8136 290.886 27.6868C291.15 27.5676 291.339 27.3997 291.451 27.1833L303.781 3.54536C303.894 3.3289 303.924 3.07825 303.87 2.79342C303.839 2.50168 303.668 2.2658 303.358 2.08577L301.111 0.693217L302.104 -1.21167L313.966 4.97559C317.502 6.81972 319.718 8.78321 320.614 10.8661C321.51 12.9489 321.379 15.1015 320.22 17.3239C319.452 18.7958 318.473 19.8092 317.285 20.364C316.11 20.9262 314.893 21.2002 313.634 21.1859C312.397 21.1648 311.278 21.04 310.277 20.8118C311.605 21.5043 312.78 22.4016 313.802 23.5038C314.832 24.5916 315.483 25.8586 315.757 27.3047C316.053 28.7439 315.745 30.3366 314.834 32.0827ZM315.278 15.1317C316.181 13.4 316.307 11.7678 315.656 10.2352C315.02 8.71003 313.562 7.35283 311.282 6.16356C310.82 5.92269 310.311 5.68465 309.754 5.44944C309.198 5.21423 308.84 5.05523 308.681 4.97243L302.833 16.1853C302.833 16.1853 303.031 16.2979 303.428 16.5231C303.839 16.7558 304.167 16.9361 304.412 17.0641C307.298 18.5695 309.582 19.1 311.264 18.6556C312.946 18.2112 314.284 17.0366 315.278 15.1317ZM309.815 29.9329C310.869 27.9126 311.035 26.1173 310.312 24.547C309.603 22.9842 308.073 21.5894 305.72 20.3625C305.244 20.1141 304.699 19.8572 304.085 19.5919C303.471 19.3266 302.921 19.0951 302.437 18.8976C301.967 18.7075 301.689 18.5899 301.602 18.5448L295.494 30.2555C295.494 30.2555 295.652 30.3565 295.969 30.5585C296.308 30.7535 296.686 30.9784 297.104 31.2331C297.544 31.4809 297.901 31.6763 298.175 31.8193C301.278 33.4376 303.721 34.0509 305.504 33.6592C307.287 33.2675 308.724 32.0254 309.815 29.9329Z" fill="#F5C852"/>
<path d="M178.344 -19.116L176.097 -17.2636C175.816 -17.0416 175.673 -16.7793 175.67 -16.4765C175.671 -16.1965 175.742 -15.9573 175.885 -15.759L186.958 -0.326375C189.349 3.00611 190.211 6.09305 189.546 8.93445C188.893 11.7664 186.868 14.4016 183.469 16.8401C180.124 19.2407 177.047 20.216 174.24 19.766C171.437 19.2933 168.892 17.4634 166.606 14.2764L155.533 -1.15618C155.39 -1.35454 155.18 -1.4941 154.902 -1.57487C154.627 -1.67834 154.34 -1.63232 154.039 -1.4368L151.763 -0.044121L150.511 -1.78971L160.845 -9.20496L162.098 -7.45937L159.891 -5.63545C159.609 -5.41348 159.467 -5.15113 159.464 -4.84839C159.465 -4.56837 159.536 -4.32918 159.678 -4.13082L169.997 10.2504C171.136 11.8373 172.315 13.1044 173.536 14.0516C174.756 14.9988 176.104 15.4538 177.58 15.4166C179.056 15.3794 180.733 14.6871 182.61 13.3398C184.488 11.9924 185.672 10.6125 186.161 9.19993C186.653 7.7647 186.648 6.30594 186.146 4.82364C185.656 3.33185 184.875 1.83879 183.803 0.344466L173.484 -14.0368C173.342 -14.2352 173.125 -14.37 172.834 -14.4413C172.546 -14.5352 172.252 -14.4845 171.951 -14.289L169.517 -12.7824L168.264 -14.528L177.091 -20.8616L178.344 -19.116Z" fill="#F5C852"/>
<path d="M210.52 707.382C209.738 710.273 208.494 712.752 206.788 714.82C205.097 716.892 203.046 718.427 200.634 719.427C198.238 720.431 195.58 720.782 192.66 720.481C192.202 722.296 192.383 723.871 193.202 725.205C194.021 726.54 195.538 727.507 197.754 728.107C198.696 728.362 199.666 728.548 200.663 728.666C201.675 728.789 202.3 728.848 202.536 728.845L201.975 730.919C201.743 730.906 201.224 730.859 200.42 730.776C199.612 730.709 198.683 730.592 197.632 730.426C196.577 730.275 195.562 730.068 194.588 729.804C191.194 728.886 188.988 727.505 187.97 725.661C186.967 723.821 186.801 721.661 187.473 719.178C185.015 718.108 182.967 716.576 181.332 714.582C179.701 712.572 178.627 710.216 178.111 707.514C177.594 704.811 177.761 701.888 178.612 698.746C179.25 696.39 180.216 694.282 181.512 692.424C182.823 690.57 184.38 689.052 186.184 687.871C188.003 686.694 190.004 685.937 192.186 685.601C194.372 685.248 196.675 685.399 199.094 686.054C202.362 686.938 204.986 688.458 206.966 690.613C208.961 692.771 210.262 695.315 210.869 698.245C211.496 701.163 211.379 704.209 210.52 707.382ZM204.817 705.839C205.502 703.309 205.769 700.861 205.617 698.493C205.481 696.129 204.838 694.083 203.686 692.355C202.54 690.612 200.78 689.419 198.408 688.777C196.067 688.143 193.958 688.272 192.081 689.164C190.208 690.04 188.612 691.454 187.291 693.406C185.97 695.359 184.963 697.616 184.27 700.176C183.589 702.69 183.329 705.149 183.487 707.552C183.65 709.94 184.311 712.016 185.469 713.78C186.648 715.532 188.384 716.718 190.677 717.339C193.003 717.968 195.098 717.827 196.963 716.916C198.849 715.993 200.454 714.547 201.779 712.579C203.124 710.599 204.137 708.353 204.817 705.839Z" fill="#F5C852"/>
<path d="M58.1506 498.975L51.0394 493.852L51.9384 492.604L52.1977 476.331L49.365 474.29L42.6719 483.581C42.5292 483.779 42.4638 484.022 42.4759 484.312C42.5012 484.611 42.6496 484.878 42.9211 485.114L45.1245 486.942L43.8686 488.685L33.5682 481.264L34.824 479.521L37.0775 480.904C37.3871 481.087 37.6745 481.134 37.9397 481.044C38.2182 480.964 38.4288 480.824 38.5715 480.626L54.1556 458.995C54.2983 458.797 54.3636 458.554 54.3515 458.264C54.3622 457.971 54.227 457.713 53.946 457.49L51.9208 455.791L53.1767 454.047L63.4772 461.468L62.2213 463.212L59.7895 461.7C59.4895 461.504 59.1889 461.448 58.8877 461.532C58.6093 461.612 58.3987 461.751 58.256 461.95L50.5924 472.587L52.0582 473.643L68.6706 469.212C68.8619 469.169 68.9684 469.035 68.9901 468.81C69.0346 468.582 68.9889 468.408 68.8532 468.29L66.916 466.594L68.1718 464.851L76.7688 471.044L75.5129 472.788C75.5129 472.788 75.276 472.657 74.8021 472.396C74.351 472.131 73.8819 471.863 73.3949 471.593C72.9078 471.322 72.6199 471.165 72.5312 471.121L57.1156 475.06L56.6175 494.922L59.4065 497.232L58.1506 498.975Z" fill="#F5C852"/>
<path d="M203.581 97.6959L194.708 105.61L193.278 104.007L195.265 101.907C195.387 101.799 195.414 101.622 195.347 101.376C195.281 101.13 195.191 100.981 195.079 100.928L186.416 96.3876L177.798 104.075L181.317 113.008C181.398 113.197 181.587 113.323 181.883 113.386C182.181 113.426 182.39 113.392 182.512 113.283L184.879 111.499L186.309 113.102L178.803 119.798L177.372 118.195L179.134 115.805L166.795 84.4778L169.601 81.9751L198.797 97.2845C199.122 97.4529 199.358 97.5471 199.507 97.5672C199.656 97.5872 199.892 97.4969 200.214 97.2963L202.15 96.0926L203.581 97.6959ZM184.149 95.2034L171.76 88.6864L176.861 101.704L184.149 95.2034Z" fill="#F5C852"/>
<path d="M241.514 443.223L239.084 444.594C238.768 444.762 238.581 444.995 238.524 445.292C238.475 445.568 238.503 445.816 238.607 446.037L251.523 473.228L247.994 474.904L219.175 457.591L229.713 479.776C229.818 479.997 229.993 480.175 230.237 480.311C230.497 480.44 230.795 480.442 231.133 480.318L233.797 479.269L234.718 481.21L224.949 485.85L224.027 483.909L226.524 482.507C226.833 482.324 227.02 482.091 227.084 481.809C227.162 481.519 227.149 481.264 227.045 481.044L215.606 456.962C215.501 456.741 215.312 456.57 215.038 456.448C214.771 456.304 214.473 456.302 214.142 456.441L211.39 457.532L210.468 455.591L219.422 451.339L219.956 452.463L245.785 468.034L235.939 447.304C235.834 447.084 235.652 446.909 235.393 446.78C235.126 446.636 234.835 446.63 234.519 446.762L231.855 447.811L230.933 445.871L240.593 441.283L241.514 443.223Z" fill="#F5C852"/>
</g>
</svg>
