<svg width="30" height="30" viewBox="0 0 30 30" fill="none" xmlns="http://www.w3.org/2000/svg">
<path d="M17.8483 3.48175H16.8483V3.53162L16.8532 3.58125L17.8483 3.48175ZM17.8483 3.48173H18.8483V3.43185L18.8433 3.38222L17.8483 3.48173ZM21.1306 4.84134L21.7638 5.6153V5.6153L21.1306 4.84134ZM23.8224 4.96598L23.1152 5.67309V5.67309L23.8224 4.96598ZM25.0339 6.17753L24.3268 6.88463L24.3503 6.90818L24.3754 6.9301L25.0339 6.17753ZM25.0339 6.17754L25.741 5.47043L25.7175 5.44689L25.6924 5.42496L25.0339 6.17754ZM25.9655 7.47474L26.9642 7.42493L25.9655 7.47474ZM25.1585 8.86931L25.9325 9.50254V9.50254L25.1585 8.86931ZM26.5182 12.1516L26.6177 11.1566H26.6177L26.5182 12.1516ZM28.0749 12.5672L28.8163 11.8961L28.8163 11.8961L28.0749 12.5672ZM28.0749 17.4325L28.8163 18.1035L28.8163 18.1035L28.0749 17.4325ZM26.5183 17.848L26.6178 18.8431H26.6178L26.5183 17.848ZM23.81 18.6488L24.7338 19.0315V19.0315L23.81 18.6488ZM25.1587 21.1299L24.3848 21.7632L24.4163 21.8018L24.4516 21.8371L25.1587 21.1299ZM25.1587 21.13L25.9327 20.4967L25.9011 20.4581L25.8658 20.4228L25.1587 21.13ZM25.9655 22.5243L26.9643 22.5742L25.9655 22.5243ZM22.5252 25.9647L22.575 26.9634H22.575L22.5252 25.9647ZM21.1307 25.1578L20.4236 25.8649L20.4588 25.9001L20.4974 25.9317L21.1307 25.1578ZM21.1306 25.1577L21.8378 24.4506L21.8025 24.4154L21.7639 24.3838L21.1306 25.1577ZM17.8483 26.5177L18.8433 26.6172V26.6172L17.8483 26.5177ZM17.4328 28.0746L18.1038 28.8161L18.1038 28.8161L17.4328 28.0746ZM12.5674 28.0746L11.8964 28.8161L11.8964 28.8161L12.5674 28.0746ZM12.1519 26.5179L11.1569 26.6174V26.6174L12.1519 26.5179ZM11.3511 23.8092L11.7338 22.8853L11.7338 22.8853L11.3511 23.8092ZM8.86952 25.1583L8.23628 24.3844L8.23628 24.3844L8.86952 25.1583ZM7.47493 25.9653L7.42511 26.964H7.42512L7.47493 25.9653ZM6.17771 25.0337L5.47061 25.7408L5.47061 25.7408L6.17771 25.0337ZM4.96617 23.8222L5.67328 23.1151L5.67328 23.1151L4.96617 23.8222ZM4.84155 21.1304L4.06759 20.4971H4.06759L4.84155 21.1304ZM6.19064 18.6488L7.11452 18.2661L6.19064 18.6488ZM3.48199 17.848L3.5815 16.853L3.53187 16.848H3.48199V17.848ZM3.48197 17.848L3.38247 18.8431L3.4321 18.848H3.48197V17.848ZM1.9253 17.4325L2.66675 16.7615H2.66675L1.9253 17.4325ZM1.9253 12.5672L1.18384 11.8961L1.18384 11.8961L1.9253 12.5672ZM3.48216 12.1516L3.38265 11.1566H3.38265L3.48216 12.1516ZM4.84176 8.86888L5.61572 8.23565L4.84176 8.86888ZM4.96623 6.17692L4.25913 5.46981V5.46981L4.96623 6.17692ZM8.86958 4.84076L8.23634 5.61472L8.86958 4.84076ZM12.1519 3.48158L13.147 3.58108V3.58108L12.1519 3.48158ZM12.5674 1.92505L11.8964 1.1836L11.8964 1.1836L12.5674 1.92505ZM17.4328 1.92505L16.7618 2.6665V2.6665L17.4328 1.92505ZM18.8483 3.48175V3.48173H16.8483V3.48175H18.8483ZM19.0317 5.26652C19.209 5.33993 19.1625 5.48366 19.0735 5.12768C18.9851 4.77379 18.9293 4.24229 18.8433 3.38224L16.8532 3.58125C16.9325 4.37432 17.0008 5.08265 17.1332 5.61256C17.2651 6.14038 17.5363 6.81188 18.2664 7.11428L19.0317 5.26652ZM20.4973 4.06739C19.8284 4.61471 19.4131 4.9511 19.1004 5.1388C18.7858 5.32761 18.8545 5.1931 19.0317 5.26652L18.2664 7.11428C18.9964 7.41667 19.663 7.13365 20.1295 6.85369C20.5979 6.57263 21.147 6.12 21.7638 5.6153L20.4973 4.06739ZM22.575 3.03565C22.0981 3.01186 21.7119 3.18487 21.4059 3.37623C21.1228 3.55321 20.8134 3.80883 20.4973 4.06739L21.7638 5.6153C22.1209 5.32311 22.3164 5.16566 22.4661 5.07206C22.5928 4.99284 22.5674 5.03776 22.4753 5.03317L22.575 3.03565ZM24.5295 4.25888C24.2442 3.97365 23.9639 3.69056 23.7009 3.4876C23.4153 3.26721 23.0497 3.05933 22.575 3.03565L22.4753 5.03317C22.3854 5.02868 22.3643 4.98246 22.479 5.07099C22.6164 5.17696 22.7922 5.35006 23.1152 5.67309L24.5295 4.25888ZM25.741 5.47042L24.5295 4.25887L23.1152 5.67309L24.3268 6.88463L25.741 5.47042ZM25.6924 5.42496L25.6924 5.42495L24.3754 6.9301L24.3754 6.93011L25.6924 5.42496ZM26.9642 7.42493C26.9406 6.95017 26.7327 6.58461 26.5123 6.299C26.3093 6.03599 26.0262 5.75565 25.741 5.47043L24.3268 6.88464C24.6498 7.20767 24.8229 7.38351 24.9289 7.52084C25.0174 7.63557 24.9712 7.61448 24.9667 7.52456L26.9642 7.42493ZM25.9325 9.50254C26.191 9.18652 26.4467 8.87711 26.6236 8.59403C26.815 8.28796 26.988 7.90183 26.9642 7.42493L24.9667 7.52456C24.9621 7.43249 25.007 7.40706 24.9278 7.53378C24.8342 7.68348 24.6768 7.87894 24.3846 8.23607L25.9325 9.50254ZM24.7333 10.9682C24.8067 11.1454 24.6722 11.2142 24.861 10.8995C25.0488 10.5868 25.3852 10.1715 25.9325 9.50254L24.3846 8.23607C23.8799 8.85293 23.4272 9.40204 23.1462 9.87038C22.8662 10.3369 22.5832 11.0035 22.8856 11.7335L24.7333 10.9682ZM26.6177 11.1566C25.7576 11.0706 25.2261 11.0148 24.8722 10.9264C24.5162 10.8374 24.6599 10.7909 24.7333 10.9682L22.8856 11.7335C23.188 12.4636 23.8595 12.7348 24.3873 12.8667C24.9172 12.9992 25.6256 13.0674 26.4186 13.1467L26.6177 11.1566ZM28.8163 11.8961C28.4959 11.5421 28.1005 11.3914 27.7488 11.3103C27.4235 11.2353 27.024 11.1972 26.6177 11.1566L26.4186 13.1467C26.8778 13.1926 27.1273 13.2195 27.2994 13.2591C27.445 13.2927 27.3953 13.3065 27.3334 13.2382L28.8163 11.8961ZM29.3334 14.1431C29.3334 13.7398 29.3354 13.3414 29.2929 13.0119C29.2468 12.6541 29.1353 12.2486 28.8163 11.8961L27.3334 13.2382C27.273 13.1714 27.2908 13.1238 27.3093 13.2675C27.3315 13.4396 27.3334 13.6863 27.3334 14.1431H29.3334ZM29.3334 15.8565V14.1431H27.3334V15.8565H29.3334ZM28.8163 18.1035C29.1353 17.7511 29.2468 17.3456 29.2929 16.9878C29.3354 16.6583 29.3334 16.2599 29.3334 15.8565H27.3334C27.3334 16.3134 27.3315 16.5601 27.3093 16.7321C27.2908 16.8759 27.273 16.8283 27.3334 16.7615L28.8163 18.1035ZM26.6178 18.8431C27.0241 18.8024 27.4236 18.7644 27.7489 18.6894C28.1006 18.6083 28.4959 18.4575 28.8163 18.1035L27.3334 16.7615C27.3953 16.6932 27.445 16.707 27.2994 16.7405C27.1274 16.7802 26.8779 16.8071 26.4188 16.853L26.6178 18.8431ZM24.7338 19.0315C24.6604 19.2087 24.5167 19.1622 24.8726 19.0732C25.2265 18.9848 25.7579 18.929 26.6178 18.8431L26.4188 16.853C25.6258 16.9323 24.9176 17.0005 24.3877 17.1329C23.8599 17.2648 23.1885 17.5361 22.8861 18.2661L24.7338 19.0315ZM25.9327 20.4967C25.3855 19.8279 25.0491 19.4127 24.8615 19.1C24.6728 18.7855 24.8072 18.8543 24.7338 19.0315L22.8861 18.2661C22.5837 18.9961 22.8666 19.6626 23.1466 20.1291C23.4276 20.5974 23.8802 21.1464 24.3848 21.7632L25.9327 20.4967ZM25.8658 20.4228L25.8658 20.4228L24.4516 21.8371L24.4516 21.8371L25.8658 20.4228ZM26.9643 22.5742C26.9881 22.0973 26.8151 21.7112 26.6238 21.4051C26.4468 21.1221 26.1912 20.8127 25.9327 20.4967L24.3848 21.7632C24.6769 22.1203 24.8343 22.3157 24.9279 22.4653C25.0071 22.592 24.9622 22.5666 24.9668 22.4745L26.9643 22.5742ZM25.7411 24.5287C26.0263 24.2434 26.3094 23.9631 26.5123 23.7001C26.7327 23.4145 26.9406 23.0489 26.9643 22.5742L24.9668 22.4745C24.9713 22.3846 25.0175 22.3635 24.929 22.4782C24.823 22.6156 24.6499 22.7914 24.3269 23.1145L25.7411 24.5287ZM24.5295 25.7402L25.7411 24.5287L24.3269 23.1145L23.1153 24.326L24.5295 25.7402ZM22.575 26.9634C23.0498 26.9398 23.4153 26.7319 23.701 26.5115C23.964 26.3085 24.2443 26.0254 24.5295 25.7402L23.1153 24.326C22.7923 24.649 22.6164 24.8221 22.4791 24.9281C22.3644 25.0166 22.3855 24.9704 22.4754 24.9659L22.575 26.9634ZM20.4974 25.9317C20.8134 26.1903 21.1228 26.4459 21.4059 26.6229C21.712 26.8142 22.0981 26.9872 22.575 26.9634L22.4754 24.9659C22.5674 24.9613 22.5929 25.0062 22.4662 24.927C22.3165 24.8334 22.121 24.676 21.7639 24.3838L20.4974 25.9317ZM20.4235 25.8648L20.4236 25.8649L21.8378 24.4506L21.8378 24.4506L20.4235 25.8648ZM19.0318 24.7326C18.8546 24.806 18.7858 24.6715 19.1004 24.8603C19.4132 25.048 19.8285 25.3844 20.4974 25.9317L21.7639 24.3838C21.147 23.8791 20.5979 23.4265 20.1296 23.1454C19.6631 22.8654 18.9965 22.5824 18.2664 22.8848L19.0318 24.7326ZM18.8433 26.6172C18.9294 25.7571 18.9851 25.2255 19.0736 24.8715C19.1626 24.5154 19.2091 24.6591 19.0318 24.7326L18.2664 22.8848C17.5363 23.1872 17.2651 23.8588 17.1332 24.3866C17.0008 24.9166 16.9326 25.625 16.8533 26.4182L18.8433 26.6172ZM18.1038 28.8161C18.4578 28.4957 18.6085 28.1003 18.6896 27.7485C18.7647 27.4232 18.8027 27.0236 18.8433 26.6172L16.8533 26.4182C16.8073 26.8774 16.7805 27.127 16.7408 27.2991C16.7072 27.4448 16.6934 27.395 16.7618 27.3332L18.1038 28.8161ZM15.8568 29.3332C16.2601 29.3332 16.6586 29.3351 16.988 29.2927C17.3458 29.2465 17.7513 29.135 18.1038 28.8161L16.7618 27.3332C16.8285 27.2728 16.8761 27.2905 16.7324 27.3091C16.5604 27.3312 16.3136 27.3332 15.8568 27.3332V29.3332ZM14.1434 29.3332H15.8568V27.3332H14.1434V29.3332ZM11.8964 28.8161C12.2488 29.135 12.6543 29.2465 13.0121 29.2927C13.3416 29.3351 13.74 29.3332 14.1434 29.3332V27.3332C13.6866 27.3332 13.4398 27.3312 13.2678 27.3091C13.1241 27.2905 13.1717 27.2728 13.2384 27.3332L11.8964 28.8161ZM11.1569 26.6174C11.1975 27.0237 11.2355 27.4233 11.3105 27.7486C11.3917 28.1003 11.5424 28.4957 11.8964 28.8161L13.2384 27.3332C13.3068 27.395 13.293 27.4448 13.2594 27.2991C13.2197 27.1271 13.1928 26.8776 13.1469 26.4184L11.1569 26.6174ZM10.9684 24.7331C10.7912 24.6597 10.8377 24.5159 10.9266 24.8719C11.0151 25.2258 11.0709 25.7573 11.1569 26.6174L13.1469 26.4184C13.0676 25.6253 12.9994 24.917 12.867 24.3871C12.7351 23.8592 12.4639 23.1877 11.7338 22.8853L10.9684 24.7331ZM9.50275 25.9323C10.1717 25.3849 10.587 25.0485 10.8998 24.8608C11.2144 24.672 11.1457 24.8065 10.9684 24.7331L11.7338 22.8853C11.0037 22.5829 10.3371 22.866 9.87062 23.1459C9.40227 23.427 8.85316 23.8796 8.23628 24.3844L9.50275 25.9323ZM7.42512 26.964C7.90202 26.9878 8.28816 26.8148 8.59423 26.6235C8.87731 26.4465 9.18672 26.1908 9.50275 25.9323L8.23628 24.3844C7.87914 24.6766 7.68368 24.834 7.53397 24.9276C7.40725 25.0069 7.43268 24.9619 7.52474 24.9665L7.42512 26.964ZM5.47061 25.7408C5.75583 26.026 6.03618 26.3091 6.29918 26.5121C6.58479 26.7325 6.95036 26.9404 7.42511 26.964L7.52475 24.9665C7.61467 24.971 7.63575 25.0172 7.52103 24.9287C7.3837 24.8227 7.20785 24.6496 6.88482 24.3266L5.47061 25.7408ZM4.25906 24.5293L5.47061 25.7408L6.88482 24.3266L5.67328 23.1151L4.25906 24.5293ZM3.03584 22.5748C3.05951 23.0495 3.2674 23.4151 3.48779 23.7007C3.69075 23.9637 3.97384 24.2441 4.25906 24.5293L5.67328 23.1151C5.35024 22.792 5.17715 22.6162 5.07118 22.4789C4.98264 22.3641 5.02887 22.3852 5.03335 22.4751L3.03584 22.5748ZM4.06759 20.4971C3.80903 20.8132 3.55341 21.1226 3.37642 21.4057C3.18506 21.7117 3.01205 22.0979 3.03584 22.5748L5.03335 22.4751C5.03795 22.5672 4.99303 22.5926 5.07225 22.4659C5.16585 22.3162 5.32331 22.1207 5.61551 21.7636L4.06759 20.4971ZM5.26676 19.0315C5.19334 18.8542 5.32786 18.7855 5.13904 19.1001C4.95133 19.4129 4.61493 19.8282 4.06759 20.4971L5.61551 21.7636C6.12022 21.1467 6.57285 20.5976 6.85392 20.1293C7.13388 19.6628 7.41692 18.9962 7.11452 18.2661L5.26676 19.0315ZM3.38249 18.8431C4.24253 18.9291 4.77403 18.9848 5.12792 19.0733C5.4839 19.1622 5.34017 19.2087 5.26676 19.0315L7.11452 18.2661C6.81212 17.5361 6.14063 17.2648 5.6128 17.1329C5.08289 17.0005 4.37456 16.9323 3.5815 16.853L3.38249 18.8431ZM3.48197 18.848H3.48199V16.848H3.48197V18.848ZM1.18384 18.1035C1.50424 18.4576 1.89961 18.6083 2.25134 18.6894C2.57665 18.7644 2.97618 18.8024 3.38247 18.8431L3.58148 16.853C3.12235 16.8071 2.87281 16.7802 2.70077 16.7405C2.55516 16.707 2.6049 16.6932 2.66675 16.7615L1.18384 18.1035ZM0.666748 15.8565C0.666748 16.2599 0.664805 16.6583 0.70727 16.9878C0.753383 17.3456 0.864882 17.7511 1.18384 18.1035L2.66675 16.7615C2.72716 16.8283 2.70939 16.8759 2.69086 16.7321C2.66869 16.5601 2.66675 16.3134 2.66675 15.8565H0.666748ZM0.666748 14.1431V15.8565H2.66675V14.1431H0.666748ZM1.18384 11.8961C0.864882 12.2486 0.753383 12.6541 0.70727 13.0119C0.664805 13.3414 0.666748 13.7398 0.666748 14.1431H2.66675C2.66675 13.6863 2.66869 13.4396 2.69086 13.2675C2.70939 13.1238 2.72716 13.1714 2.66675 13.2382L1.18384 11.8961ZM3.38265 11.1566C2.9763 11.1972 2.57674 11.2353 2.2514 11.3103C1.89966 11.3914 1.50426 11.5421 1.18384 11.8961L2.66675 13.2382C2.60488 13.3065 2.55513 13.2927 2.7008 13.2591C2.87288 13.2195 3.12247 13.1926 3.58166 13.1467L3.38265 11.1566ZM5.26726 10.9681C5.34069 10.7909 5.48444 10.8374 5.12836 10.9264C4.7744 11.0148 4.24281 11.0706 3.38265 11.1566L3.58166 13.1467C4.37484 13.0673 5.08325 12.9991 5.61321 12.8667C6.14103 12.7348 6.81261 12.4636 7.11502 11.7335L5.26726 10.9681ZM4.0678 9.50212C4.61523 10.1712 4.95172 10.5866 5.13948 10.8994C5.32839 11.2142 5.19382 11.1454 5.26726 10.9681L7.11502 11.7335C7.41744 11.0034 7.13431 10.3367 6.85434 9.87022C6.57323 9.40183 6.12053 8.85264 5.61572 8.23565L4.0678 9.50212ZM3.0359 7.42432C3.01211 7.90126 3.18516 8.28742 3.37653 8.59349C3.55354 8.87659 3.80918 9.18603 4.0678 9.50212L5.61572 8.23565C5.32347 7.87846 5.16597 7.68295 5.07235 7.5332C4.99308 7.40643 5.03801 7.43185 5.03342 7.52395L3.0359 7.42432ZM4.25913 5.46981C3.97391 5.75503 3.69081 6.03538 3.48786 6.29839C3.26746 6.584 3.05958 6.94956 3.0359 7.42432L5.03342 7.52395C5.02893 7.61387 4.98271 7.63496 5.07124 7.52023C5.17721 7.3829 5.35031 7.20706 5.67334 6.88403L4.25913 5.46981ZM5.47067 4.25827L4.25913 5.46981L5.67334 6.88403L6.88489 5.67248L5.47067 4.25827ZM7.42518 3.03504C6.95042 3.05872 6.58486 3.2666 6.29925 3.487C6.03624 3.68995 5.75589 3.97305 5.47067 4.25827L6.88489 5.67248C7.20792 5.34945 7.38376 5.17635 7.52109 5.07038C7.63582 4.98185 7.61473 5.02807 7.52481 5.03256L7.42518 3.03504ZM9.50282 4.06681C9.18679 3.80824 8.87737 3.55261 8.59429 3.37563C8.28822 3.18427 7.90208 3.01126 7.42518 3.03504L7.52481 5.03256C7.43274 5.03715 7.40731 4.99223 7.53403 5.07146C7.68374 5.16506 7.87921 5.32252 8.23634 5.61472L9.50282 4.06681ZM10.9685 5.26599C11.1457 5.19257 11.2145 5.32709 10.8998 5.13827C10.5871 4.95055 10.1718 4.61415 9.50282 4.06681L8.23634 5.61472C8.85322 6.11944 9.40233 6.57208 9.87068 6.85315C10.3372 7.13311 11.0038 7.41615 11.7339 7.11375L10.9685 5.26599ZM11.1569 3.38207C11.0709 4.242 11.0151 4.7734 10.9267 5.12722C10.8378 5.48309 10.7913 5.33939 10.9685 5.26599L11.7339 7.11375C12.4639 6.81137 12.7351 6.13996 12.867 5.61214C12.9994 5.08228 13.0677 4.37402 13.147 3.58108L11.1569 3.38207ZM11.8964 1.1836C11.5424 1.50398 11.3917 1.89932 11.3106 2.25105C11.2355 2.57634 11.1975 2.97584 11.1569 3.38207L13.147 3.58108C13.1929 3.122 13.2197 2.8725 13.2594 2.7005C13.293 2.55494 13.3067 2.60467 13.2384 2.6665L11.8964 1.1836ZM14.1434 0.666504C13.74 0.666504 13.3416 0.664561 13.0121 0.707025C12.6543 0.753139 12.2488 0.864638 11.8964 1.1836L13.2384 2.6665C13.1717 2.72692 13.1241 2.70914 13.2678 2.69062C13.4398 2.66845 13.6866 2.6665 14.1434 2.6665V0.666504ZM15.8568 0.666504H14.1434V2.6665H15.8568V0.666504ZM18.1038 1.1836C17.7513 0.864638 17.3458 0.753139 16.988 0.707025C16.6586 0.664561 16.2601 0.666504 15.8568 0.666504V2.6665C16.3136 2.6665 16.5604 2.66845 16.7324 2.69062C16.8761 2.70914 16.8285 2.72692 16.7618 2.6665L18.1038 1.1836ZM18.8433 3.38222C18.8027 2.97594 18.7647 2.57641 18.6896 2.2511C18.6085 1.89936 18.4578 1.50399 18.1038 1.1836L16.7618 2.6665C16.6934 2.60465 16.7072 2.55491 16.7408 2.70053C16.7805 2.87256 16.8073 3.1221 16.8532 3.58124L18.8433 3.38222ZM19.3334 14.9998C19.3334 17.3931 17.3933 19.3332 15.0001 19.3332V21.3332C18.4979 21.3332 21.3334 18.4976 21.3334 14.9998H19.3334ZM15.0001 10.6665C17.3933 10.6665 19.3334 12.6066 19.3334 14.9998H21.3334C21.3334 11.502 18.4979 8.6665 15.0001 8.6665V10.6665ZM10.6668 14.9998C10.6668 12.6066 12.6069 10.6665 15.0001 10.6665V8.6665C11.5023 8.6665 8.66676 11.502 8.66676 14.9998H10.6668ZM15.0001 19.3332C12.6069 19.3332 10.6668 17.3931 10.6668 14.9998H8.66676C8.66676 18.4976 11.5023 21.3332 15.0001 21.3332V19.3332Z" fill="#2A445E"/>
</svg>
