<svg width="32" height="32" viewBox="0 0 32 32" fill="none" xmlns="http://www.w3.org/2000/svg">
<path d="M14.4156 28.1849L13.9684 29.0793H13.9684L14.4156 28.1849ZM17.9933 28.1849L18.4405 29.0793L17.9933 28.1849ZM18.1671 28.098L17.7199 27.2036L18.1671 28.098ZM19.3167 26.3102L18.3192 26.2389L19.3167 26.3102ZM19.1013 27.4842L18.27 26.9285L19.1013 27.4842ZM13.0923 26.3102L12.0948 26.3814L13.0923 26.3102ZM14.2419 28.098L13.7947 28.9924L14.2419 28.098ZM13.3076 27.4842L14.139 26.9285L13.3076 27.4842ZM7.00003 12.2045L6.07162 12.576L7.00003 12.2045ZM7.00001 12.2044L7.92842 11.8329L7.00001 12.2044ZM10.9471 19.7607L11.5189 18.9403L10.9471 19.7607ZM11.6979 20.6324L10.7809 21.0313L11.6979 20.6324ZM21.4619 19.7607L22.0337 20.5811L21.4619 19.7607ZM20.7111 20.6324L19.7941 20.2335L20.7111 20.6324ZM20.9589 20.1574L20.1852 19.5239L20.9589 20.1574ZM24.409 12.2045C24.409 14.9926 23.0192 17.4562 20.89 18.9404L22.0337 20.5811C24.6764 18.739 26.409 15.6741 26.409 12.2045H24.409ZM16.2045 4C20.7357 4 24.409 7.67327 24.409 12.2045H26.409C26.409 6.5687 21.8403 2 16.2045 2V4ZM8.00003 12.2044C8.00005 7.67324 11.6733 4 16.2045 4V2C10.5687 2 6.00006 6.56867 6.00003 12.2044L8.00003 12.2044ZM7.92843 11.8329L7.92842 11.8329L6.07161 12.576L6.07162 12.576L7.92843 11.8329ZM11.5189 18.9403C9.38981 17.4562 8.00003 14.9926 8.00003 12.2045L6.00003 12.2045C6.00003 15.6741 7.73258 18.7389 10.3752 20.5811L11.5189 18.9403ZM14.0897 26.2389C13.9417 24.1664 13.4424 22.1358 12.6149 20.2335L10.7809 21.0313C11.5181 22.726 11.9629 24.5351 12.0948 26.3814L14.0897 26.2389ZM14.8628 27.2904L14.6891 27.2036L13.7947 28.9924L13.9684 29.0793L14.8628 27.2904ZM17.5461 27.2904C16.7015 27.7127 15.7074 27.7127 14.8628 27.2904L13.9684 29.0793C15.3761 29.7831 17.0329 29.7831 18.4405 29.0793L17.5461 27.2904ZM17.7199 27.2036L17.5461 27.2904L18.4405 29.0793L18.6143 28.9924L17.7199 27.2036ZM19.7941 20.2335C18.9666 22.1358 18.4673 24.1665 18.3192 26.2389L20.3142 26.3814C20.4461 24.5351 20.8909 22.726 21.6281 21.0313L19.7941 20.2335ZM18.6143 28.9924C18.8599 28.8696 19.1059 28.7478 19.3043 28.6243C19.5177 28.4914 19.7499 28.3134 19.9327 28.04L18.27 26.9285C18.3056 26.8753 18.333 26.873 18.2473 26.9264C18.1465 26.9891 17.9989 27.064 17.7199 27.2036L18.6143 28.9924ZM18.3192 26.2389C18.2953 26.5747 18.281 26.7621 18.2597 26.8955C18.24 27.0186 18.2285 26.9906 18.27 26.9285L19.9327 28.04C20.1214 27.7577 20.1948 27.4606 20.2347 27.2106C20.2729 26.9711 20.2927 26.6816 20.3142 26.3814L18.3192 26.2389ZM12.0948 26.3814C12.1163 26.6816 12.136 26.9711 12.1743 27.2106C12.2142 27.4606 12.2876 27.7577 12.4763 28.04L14.139 26.9285C14.1805 26.9906 14.1689 27.0186 14.1493 26.8955C14.128 26.7621 14.1137 26.5747 14.0897 26.2389L12.0948 26.3814ZM14.6891 27.2036C14.41 27.064 14.2625 26.9891 14.1617 26.9264C14.076 26.873 14.1034 26.8753 14.139 26.9285L12.4763 28.04C12.6591 28.3134 12.8913 28.4914 13.1047 28.6243C13.3031 28.7478 13.5491 28.8696 13.7947 28.9924L14.6891 27.2036ZM6.07162 12.576C6.04116 12.4999 6.02462 12.4315 6.01519 12.378C6.00556 12.3233 6.00003 12.2652 6.00003 12.2045L8.00003 12.2045C8.00003 12.0998 7.98345 11.9704 7.92843 11.8329L6.07162 12.576ZM7.00002 11.2044C6.29246 11.2044 5.8087 11.9191 6.07161 12.576L7.92842 11.8329C8.19132 12.4897 7.70757 13.2044 7.00002 13.2044V11.2044ZM6.00003 12.2044C6.00003 11.6597 6.44019 11.2044 7.00002 11.2044V13.2044C7.55986 13.2044 8.00002 12.7491 8.00003 12.2044L6.00003 12.2044ZM10.3752 20.5811C10.5213 20.6829 10.6025 20.7398 10.6598 20.7838C10.7137 20.8253 10.7022 20.8225 10.6764 20.791L12.2237 19.5238C12.0253 19.2815 11.7376 19.0928 11.5189 18.9403L10.3752 20.5811ZM12.6149 20.2335C12.528 20.0338 12.419 19.7623 12.2237 19.5238L10.6764 20.791C10.6603 20.7714 10.6579 20.7614 10.674 20.7933C10.6832 20.8116 10.6957 20.838 10.7141 20.8791C10.7327 20.9205 10.7536 20.9685 10.7809 21.0313L12.6149 20.2335ZM20.89 18.9404C20.6714 19.0928 20.3837 19.2815 20.1852 19.5239L21.7326 20.791C21.7068 20.8226 21.6953 20.8253 21.7492 20.7839C21.8065 20.7398 21.8877 20.6829 22.0337 20.5811L20.89 18.9404ZM21.6281 21.0313C21.6553 20.9686 21.6762 20.9206 21.6948 20.8792C21.7132 20.8381 21.7257 20.8117 21.735 20.7934C21.7511 20.7615 21.7486 20.7714 21.7326 20.791L20.1852 19.5239C19.9899 19.7623 19.8809 20.0338 19.7941 20.2335L21.6281 21.0313Z" fill="#2A445E"/>
<path d="M19.9151 22.4805V22.4805C17.4788 23.0895 14.9301 23.0895 12.4939 22.4805V22.4805" stroke="#2A445E" stroke-width="2"/>
</svg>
