<svg width="343" height="200" viewBox="0 0 343 200" fill="none" xmlns="http://www.w3.org/2000/svg">
<path d="M0 20.0001C0 8.95441 8.9543 0.000114616 20 0.000108888L110.639 6.18867e-05C119.217 5.74384e-05 127.328 5.75438 134.462 10.5183C141.265 15.0611 152.675 19.3549 171.5 19.3549C190.325 19.3549 201.735 15.0611 208.538 10.5182C215.672 5.75437 223.783 5.14496e-05 232.361 4.70013e-05L323 0C334.046 -5.7278e-06 343 8.95431 343 20V180C343 191.046 334.046 200 323 200H20C8.9543 200 0 191.046 0 180V20.0001Z" fill="#9CDE73"/>
<path d="M187.94 3.58447H155.059C154.507 3.58447 154.059 4.03219 154.059 4.58447V5.45185C154.059 6.00414 154.507 6.45185 155.059 6.45185H187.94C188.493 6.45185 188.94 6.00414 188.94 5.45185V4.58447C188.94 4.03219 188.493 3.58447 187.94 3.58447Z" fill="#9CDE73"/>
</svg>
