<svg width="45" height="57" viewBox="0 0 45 57" fill="none" xmlns="http://www.w3.org/2000/svg">
<g clip-path="url(#clip0_150_5255)">
<path d="M19.9371 52.6458L8.1314 49.1078C8.1314 49.1078 7.61431 48.812 7.30004 48.5963C4.60754 46.7482 3.09842 41.3696 3.09842 41.3696C3.09842 41.3696 2.67397 40.0639 2.63348 39.1974C2.59731 38.4236 2.83111 37.2238 2.83111 37.2238L6.88851 23.6849C6.88851 23.6849 7.81469 21.4705 10.9468 22.4092C13.4164 23.1493 13.213 25.5802 13.213 25.5802L14.0425 22.8123C14.0425 22.8123 15.141 21.1086 17.7939 21.9036C20.0225 22.5715 20.126 24.6354 20.126 24.6354L20.4326 23.6125C20.4326 23.6125 21.5398 22.1082 23.8889 22.8122C26.1176 23.4801 26.4559 25.4176 26.4559 25.4176L31.2527 9.41167C31.2527 9.41167 32.4796 6.63169 35.3708 7.49813C38.3825 8.40066 37.8783 11.3973 37.8783 11.3973L31.9455 31.1941C31.9455 31.1941 34.9555 33.5353 35.7842 35.6889C36.1943 36.7546 36.5012 37.4192 36.37 38.5531C36.236 39.7112 35.7627 40.3284 35.2032 41.3512C32.4084 46.4608 24.5 51.5237 24.5 51.5237C24.5 51.5237 23.1995 52.4138 22.3641 52.6517C21.4527 52.9113 19.9371 52.6458 19.9371 52.6458Z" fill="#F9F7F3"/>
<path d="M31.9455 31.1941C31.9455 31.1941 34.9555 33.5353 35.7842 35.6889C36.1943 36.7546 36.5012 37.4192 36.37 38.5531C36.236 39.7112 35.7627 40.3284 35.2032 41.3512C32.4084 46.4608 24.5 51.5237 24.5 51.5237C24.5 51.5237 23.1995 52.4138 22.3641 52.6517C21.4527 52.9113 19.9371 52.6458 19.9371 52.6458L8.1314 49.1078C8.1314 49.1078 7.61431 48.812 7.30004 48.5963C4.60754 46.7482 3.09842 41.3696 3.09842 41.3696C3.09842 41.3696 2.67397 40.0639 2.63348 39.1974C2.59731 38.4236 2.8311 37.2238 2.8311 37.2238L6.88851 23.6849C6.88851 23.6849 7.81469 21.4705 10.9468 22.4092C13.4164 23.1493 13.213 25.5802 13.213 25.5802M31.9455 31.1941L30.034 37.5724M31.9455 31.1941L37.8783 11.3973C37.8783 11.3973 38.3825 8.40066 35.3708 7.49813C32.4796 6.63169 31.2527 9.41167 31.2527 9.41167L26.4559 25.4176M25.9149 27.2228L26.4559 25.4176M26.4559 25.4176C26.4559 25.4176 26.1176 23.4801 23.8889 22.8122C21.5398 22.1082 20.4326 23.6125 20.4326 23.6125L20.126 24.6354M19.4047 27.0424L20.126 24.6354M20.126 24.6354C20.126 24.6354 20.0225 22.5715 17.7939 21.9036C15.141 21.1086 14.0425 22.8123 14.0425 22.8123L13.213 25.5802M12.7622 27.0846L13.213 25.5802" stroke="#020134" stroke-width="2" stroke-linecap="round" stroke-linejoin="round"/>
<path d="M26.5 6.25L2 6.25M2 6.25L6.5 10.75M2 6.25L6.5 1.75" stroke="#020134" stroke-width="2" stroke-linecap="round" stroke-linejoin="round"/>
</g>
<defs>
<clipPath id="clip0_150_5255">
<rect width="44.8956" height="56.0236" fill="white"/>
</clipPath>
</defs>
</svg>
