<svg width="32" height="32" viewBox="0 0 32 32" fill="none" xmlns="http://www.w3.org/2000/svg">
<path d="M4.21113 18.5742C3.26046 16.9897 3.26046 15.0103 4.21113 13.4258C4.50123 12.9423 4.98184 12.6036 5.53476 12.493L7.79213 12.0416C7.92662 12.0147 8.04784 11.9425 8.13564 11.8372L11.8375 7.39498C13.02 5.97592 13.6113 5.26638 14.139 5.45742C14.6666 5.64846 14.6666 6.57207 14.6666 8.41928L14.6666 23.5807C14.6666 25.4279 14.6666 26.3515 14.139 26.5426C13.6113 26.7336 13.02 26.0241 11.8375 24.605L8.13564 20.1628C8.04784 20.0575 7.92662 19.9853 7.79213 19.9584L5.53476 19.507C4.98185 19.3964 4.50124 19.0577 4.21113 18.5742Z" fill="#2A445E" stroke="#2A445E" stroke-width="2"/>
<path d="M20.7141 11.2859C21.9579 12.5297 22.6597 14.2147 22.6667 15.9737C22.6736 17.7327 21.9851 19.4232 20.7511 20.6767" stroke="#2A445E" stroke-width="2" stroke-linecap="round"/>
<path d="M26.2091 8.45751C28.1992 10.4476 29.3222 13.1436 29.3333 15.958C29.3443 18.7724 28.2427 21.4771 26.2683 23.4828" stroke="#2A445E" stroke-width="2" stroke-linecap="round"/>
</svg>
